# xmcd CD database file
# Copyright (C) 1993-1996 Ti Kan
#
# Track frame offsets:
#  150
#  16332
#  31312
#  44980
#  60087
#  75122
#  86685
#  98470
#  108172
#  120195
#
# Disc length: 1863 seconds
#
# Revision: 1
# Processed by: cddbd v1.5.1PL2 Copyright (c) Steve Scherf et al.
# Submitted via: Advanced CD Ripper Pro 2.0
#
DISCID=6107450a
DTITLE=El Gran Combo - Latin Power
DYEAR=2006
DGENRE=Salsa
TTITLE0=Aquarius
TTITLE1=Build Me Up Butter Cup
TTITLE2=Good Night My Love
TTITLE3=Mundy Baja
TTITLE4=La Rumba No Se Acabó
TTITLE5=I m Gonna Make You Love Me
TTITLE6=Cinnamon
TTITLE7=This Magic Moment
TTITLE8=Mi Mundo Es Nada Sin Tu Amor
TTITLE9=No Es De Pena
EXTD=
EXTT0=
EXTT1=
EXTT2=
EXTT3=
EXTT4=
EXTT5=
EXTT6=
EXTT7=
EXTT8=
EXTT9=
PLAYORDER=
